# xmcd
#
# Track frame offsets:
#	182
#	11095
#	20342
#	32842
#	47335
#	57475
#	67592
#	81880
#	94100
#	105107
#	118692
#	128492
#	138855
#	149830
#	160295
#	172492
#
# Disc length: 2451 seconds
#
# Revision: 11
# Processed by: cddbd v1.5.2PL0 Copyright (c) Steve Scherf et al.
# Submitted via: audiograbber 1.83.01
#
DISCID=d2099110
DTITLE=Various Artist - Nashville Gold - Super Country Hits, Vol. 2
DYEAR=1990
DGENRE=Country
TTITLE0=John D. Loudermilk  - Blue Train - 1961
TTITLE1=Anita Kerr Singers   - Night Train To Memphis - 1961
TTITLE2=Hank Snow    - I'm Movin' On - 1950
TTITLE3=Bobby Bare   - Marie Laveau - 1973
TTITLE4=Charley Pride  - Is Anybody Goin' To San Antone - 1969
TTITLE5=Waylon Jennings   - Ruby, Don't Take Your Love To Town - 1966
TTITLE6=Jim Reeves  - The Wreck Of Number Nine - 1960
TTITLE7=Dave and Sugar  - The Door Is Always Open - 1976
TTITLE8=Ronnie Milsap  - Daydreams About Night Things - 1974
TTITLE9=Dolly Parton   - Joshua - 1970
TTITLE10=Willie Nelson  - Blackjack County Chain -  1981
TTITLE11=Chet Atkins   - Oh Lonesome Me - 1959
TTITLE12=Charlie Rich  - There Won't Be Anymore - 1966
TTITLE13=Jerry Reed  - When You're Hot You're Hot - 1970
TTITLE14=Hank Snow and Anita Carter   - Bluebird Island - 1951
TTITLE15=Jim Reeves and Dottie West  - Love Is No Excuse - 1963
EXTD=YEAR: 1990
EXTT0=
EXTT1=
EXTT2=
EXTT3=
EXTT4=
EXTT5=
EXTT6=
EXTT7=
EXTT8=
EXTT9=
EXTT10=
EXTT11=
EXTT12=
EXTT13=
EXTT14=
EXTT15=
PLAYORDER=
